<svg xmlns="http://www.w3.org/2000/svg" width="682.667" height="682.667" viewBox="0 0 512 512">
  <path
    d="M237.9.4c-.2.2-4 .6-8.3 1-4.4.4-8.2.9-8.5 1.1-.4.2-3.4.7-6.6 1-11.7 1.4-47.2 11.1-49.9 13.6-.6.5-1.6.9-2.3.9-1.4 0-8.7 3.2-21.4 9.5C113.5 40.8 82.2 65.1 63 87.9c-2.5 3-5 5.9-5.5 6.5-5.4 5.8-18.6 25.3-25.2 37.1-7.5 13.5-18 37.5-19.8 45.5-.2.8-1.5 5.2-2.9 9.6-3.5 11.6-6.8 28.5-8.3 42.9-1 9-1 41.7-.1 51.5 2.3 23.7 10.3 54.8 19.6 76 3.1 7 11.1 23.2 13 26.2.9 1.5 3.4 5.6 5.6 9.2 4.2 7.1 15.4 22.3 22.6 30.6 26 30.5 61.6 55.7 99.5 70.8 8.8 3.5 23.2 8.3 29 9.7 7.9 1.9 20.7 4.6 24.5 5.1 2.5.3 5.4.8 6.5 1 5.6 1.2 16.9 1.8 34 1.9 23.1 0 29.9-.6 50.5-4.6 5.8-1.2 11.5-2.3 12.8-2.5 4.7-.9 32-10.3 38.7-13.4 69-31.2 117.5-84.1 141-153.5 3.3-9.8 6.8-22.7 8-29.4.3-1.9.7-3.7.9-4 .3-.5.9-4.2 2.2-13.1 2-14.6 2.6-45.5 1.2-60-4.7-46.9-22.4-92.2-50.7-129.5-2.5-3.3-5-6.5-5.6-7.1-.5-.6-2.8-3.3-5-5.9-23.8-28.5-59.3-53.8-99-70.5C336 11.9 308.6 4.7 291 2.4c-2.5-.3-5.6-.8-7-1-2.9-.6-45.6-1.5-46.1-1z"/>
</svg>
